<!DOCTYPE svg PUBLIC "-//W3C//DTD SVG 20010904//EN" "http://www.w3.org/TR/2001/REC-SVG-20010904/DTD/svg10.dtd">
<svg version="1.0" xmlns="http://www.w3.org/2000/svg" width="217px" height="216px" viewBox="0 0 2170 2160" preserveAspectRatio="xMidYMid meet">
<g id="layer101" fill="#000000" stroke="none">
 <path d="M845 2149 c-373 -89 -670 -356 -791 -711 -74 -219 -72 -505 6 -719 124 -341 392 -588 746 -686 91 -26 113 -28 279 -28 166 0 188 2 279 28 354 98 622 345 746 686 78 214 80 500 6 719 -111 326 -368 576 -706 688 -82 27 -94 28 -305 30 -121 2 -238 -2 -260 -7z"/>
 </g>
<g id="layer102" fill="#feb72c" stroke="none">
 <path d="M845 2149 c-373 -89 -670 -356 -791 -711 -74 -219 -72 -505 6 -719 124 -341 392 -588 746 -686 91 -26 113 -28 279 -28 166 0 188 2 279 28 354 98 622 345 746 686 78 214 80 500 6 719 -111 326 -368 576 -706 688 -82 27 -94 28 -305 30 -121 2 -238 -2 -260 -7z m445 -84 c198 -42 387 -149 525 -297 198 -211 296 -501 264 -783 -26 -239 -122 -439 -288 -606 -214 -214 -500 -316 -803 -288 -233 22 -441 121 -609 288 -426 426 -382 1132 93 1498 148 114 314 178 533 207 50 7 216 -5 285 -19z"/>
 <path d="M830 1071 c0 -243 3 -441 7 -441 8 0 714 429 731 444 9 9 -71 60 -345 218 -197 114 -366 210 -375 213 -17 7 -18 -18 -18 -434z"/>
 </g>

</svg>